<?xml version="1.0" encoding="utf-8"?>
<svg id="Capa_1" data-name="Capa 1" xmlns="http://www.w3.org/2000/svg" viewBox="67.225 60.273 699.906 496.072" xmlns:bx="https://boxy-svg.com" width="955.625px" height="406.231px">
  <defs>
    <style>.cls-1{fill:none;}.cls-2{clip-path:url(#clip-path);}.cls-3{clip-path:url(#clip-path-2);}.cls-4{fill:#0a95a5;}.cls-5{fill:#ffffa5;}.cls-6{fill:#bcf270;}.cls-7{fill:#29d9c2;}.cls-8{fill:#00a2a5;}.cls-9{fill:#2f2a33;}.cls-10{fill:#fff;}</style>
    <clipPath id="clip-path">
      <circle class="cls-1" cx="486.5" cy="545.5" r="444.5"/>
    </clipPath>
    <clipPath id="clip-path-2">
      <circle class="cls-1" cx="488.8" cy="541.65" r="440.2"/>
    </clipPath>
    <bx:export>
      <bx:file format="svg" href="#object-0" path="Sin título.svg"/>
    </bx:export>
    <bx:grid x="0" y="0" width="70.615" height="74.346"/>
    <path id="path-0" style="fill: none;" d="M 258.78 410.872 C 297 422.146 324.224 433.188 348.042 433.188 C 381.248 433.188 407.499 426.833 429.427 417.436 C 441.547 412.521 453.568 398.034 456.993 391.182 C 465.319 381.544 470.364 362.303 480.621 362.303 C 486.752 359.894 514.751 351.837 514.751 346.551 C 532.589 337.578 545.319 337.174 558.069 330.799 C 573.076 319.919 589.276 307.915 594.824 294.044 C 609.985 270.767 617.074 249.543 626.328 231.036 C 630.441 221.497 632.891 213.69 632.891 204.783 L 632.891 202.157"/>
    <path id="path-1" style="fill: none;" d="M 232.526 380.681 C 247.908 384.619 252.215 395.12 260.093 395.12 C 268.359 399.91 274.942 401.889 282.408 405.622 C 286.931 408.832 291.408 412.185 296.847 412.185 C 303.754 414.326 315.157 417.436 320.475 417.436 C 327.715 417.436 335.177 416.123 340.166 416.123 C 348.772 416.123 354.533 412.185 361.168 412.185 C 366.025 412.185 380.858 409.603 380.858 406.934 C 387.42 404.31 395.588 404.018 399.236 400.371 C 405.728 399.058 414.374 393.458 418.926 391.182 C 420.238 387.685 435.609 380.06 438.616 378.055 C 439.929 377.157 449.928 368.867 450.43 368.867 L 451.743 367.554 L 453.055 367.554"/>
    <path id="path-2" style="fill: none;" d="M 155.079 262.54 C 152.453 277.424 153.766 284.65 153.766 291.419 C 157.434 296.535 160.329 310.529 160.329 313.735 C 164.955 319.673 165.58 326.941 165.58 333.425 C 166.893 339.556 169.897 348.622 172.144 353.115 C 178.151 360.435 179.77 368.742 185.27 371.492 C 196.756 381.665 196.925 387.085 199.71 389.87 C 214.719 402.254 240.957 400.925 252.217 412.185 C 267.327 415.909 277.979 418.748 285.033 418.748 C 294.716 423.466 299.872 430.562 308.661 430.562 C 317.159 431.875 344.01 434.407 349.354 439.751 C 365.96 439.751 377.632 438.438 388.734 438.438 C 400.695 434.427 419.199 426.624 428.115 426.624 C 440.137 422.617 454.578 409.35 460.931 402.996 C 478.138 388.122 476.744 381.246 485.872 367.554 L 489.81 363.616 C 497.382 348.471 506.666 331.008 518.689 318.985"/>
    <path id="path-3" style="fill: none;" d="M 390.047 441.064 C 450.918 446.683 490.879 425.604 523.94 385.931 C 552.257 369 597.449 348.622 597.449 320.298 C 598.762 300.792 607.937 284.937 610.576 269.104 C 616.855 240.049 619.765 223.618 619.765 203.47 L 621.077 202.157"/>
    <path id="path-4" style="fill: none;" d="M 468.807 467.317 C 605.458 458.916 691.18 436.126 770.722 404.309 C 801.097 384.496 821.916 377.847 821.916 351.802 C 828.338 340.271 836.355 328.58 836.355 320.298 L 841.606 311.109 C 858.995 290.822 877.937 272.153 896.738 253.352"/>
    <path id="path-5" style="fill: none;" d="M 172.144 338.675 C 182.306 347.526 190.284 360.991 190.521 360.991 C 193.949 364.418 202.335 369.474 202.335 372.805 C 206.079 376.549 216.774 386.677 216.774 389.87 C 224.28 394.279 237.014 402.996 241.715 402.996 C 244.814 402.996 268.297 407.263 270.594 409.56 C 278.839 410.872 289.517 411.802 295.535 414.81 C 312.588 416.123 330.179 420.51 345.416 422.686 C 371.991 422.686 386.048 421.384 401.861 418.748 C 432.55 407.643 451.601 389.976 472.745 374.117 L 477.996 368.867 C 487.93 358.933 495.385 346.065 502.937 334.737"/>
    <path id="path-6" style="fill: none;" d="M 174.769 350.489 C 183.158 361.504 190.521 370.201 190.521 372.805 C 191.834 377.166 202.794 382.879 206.273 384.619 C 209.701 389.359 225.963 397.446 225.963 400.371 C 232.737 401.684 239.019 412.185 241.715 412.185 C 248.736 412.185 251.649 420.061 257.467 420.061 C 262.524 423.805 269.699 427.937 273.219 427.937 C 280.884 431.113 292.058 434.5 299.473 434.5 C 311.646 434.5 321.224 433.562 328.351 437.126 C 342.353 437.126 351.104 437.126 359.856 437.126 C 370.795 437.126 379.108 437.126 387.422 437.126 C 393.134 435.582 404.251 430.562 407.112 430.562 C 409.737 428.201 424.045 422.818 426.802 420.061 C 436.365 411.811 444.911 407.202 451.743 400.371 C 457.484 394.63 466.182 385.065 466.182 380.681 C 474.086 373.447 487.692 354.726 491.123 347.864 C 497.195 339.167 501.801 326.773 506.875 324.236 C 518.023 311.775 523.082 295.759 529.19 283.543 C 532.873 275.119 538.379 262.474 538.379 255.977 C 538.379 238.912 538.379 223.16 538.379 207.408 C 538.379 194.261 537.066 184.648 537.066 175.904 C 535.754 166.113 526.068 149.153 520.002 143.087 C 508.361 131.446 503.42 120.495 488.497 115.521 C 472.279 100.615 444.705 89.268 428.115 89.268 L 424.177 89.268 C 417.176 89.268 410.175 89.268 403.174 89.268"/>
    <path id="path-7" style="fill: none;" d="M 169.518 345.239 C 174.769 353.648 181.666 361.325 183.958 363.616 C 185.27 366.534 193.774 376.743 194.459 376.743 C 201.117 378.055 202.512 378.232 207.586 383.306 C 211.116 386.837 219.4 398.543 219.4 393.808 C 229.735 393.808 235.496 404.309 243.028 404.309 C 249.622 408.919 264.411 417.436 270.594 417.436 C 290.524 421.434 302.057 427.937 312.599 427.937 C 326.577 429.25 351.777 431.117 358.543 434.5 C 383.046 434.5 399.673 434.5 416.3 434.5 C 439.215 424.356 454.936 413.728 472.745 400.371 C 483.121 386.184 497.73 379.237 501.624 367.554 C 509.487 357.066 513.938 337.177 517.376 326.861 L 520.002 324.236 C 522.563 316.551 527.878 307.125 527.878 299.295"/>
    <bx:guide x="413.675" y="506.697" angle="0"/>
  </defs>
  <title>Logo ingeocimyc 2</title>
  <g class="cls-2" style="" transform="matrix(0.374604, 0, 0, 0.374604, 240.562775, 32.213348)" id="object-0">
    <g class="cls-3">
      <circle class="cls-4" cx="488.8" cy="541.65" r="440.2"/>
      <path class="cls-5" d="M-.46,401.34s208-60,456,84,520-96,520-96v528H-.46Z"/>
      <path class="cls-6" d="M-.46,473.63s208-60,456,84,520-96,520-96v528H-.46Z"/>
      <path class="cls-7" d="M-.46,553.67s208-60,456,84,520-96,520-96v528H-.46Z"/>
      <path class="cls-8" d="M-.46,623.38s208-60,456,84,520-96,520-96v528H-.46Z"/>
      <path class="cls-9" d="M-.46,700.83s208-60,456,84,520-96,520-96v528H-.46Z"/>
    </g>
    <path class="cls-10" d="M471,825.77s23.88,47.76,59.7,0,71.65-89.56,71.65-89.56,35.82-29.85,0-47.76-195.49-92.64-195.49-92.64v-41.9L656.08,670.54s53.74,0,17.91-41.79l-35.82-17.91V551.13L406.86,453V416.77L662.05,527.25s35.82-11.94,11.94-41.79l-35.82-17.91V407.84L405,310.11l1.91-47.62L662.05,378s29.85-6,11.94-35.82l-35.82-17.91V258.58l-231.31-97v-41.9L662.05,228.73s29.85-6,11.94-41.79L638.17,175V115.29L405,18.69s-35.45-10.86-35.45,13V55.59L333.68,43.65s-35.82,11.94-6,35.82l41.06,17.31-1.91,110.47-33.18-14.34s-29.85,17.91-6,35.82l39.15,18.52V350.11L333.68,336.2s-29.85,17.91-6,41.79l39.15,17.83L363.53,497.4l-35.82-11.94s-29.85,11.94-6,35.82l41.79,23.88V700.39Z"/>
  </g>
  <text style="white-space: pre; fill: rgb(51, 51, 51); font-family: Arial, sans-serif; font-size: 28px;" x="647.558" y="461.778"> </text>
  <text style="fill: rgb(51, 51, 51); font-family: Montserrat; font-size: 25px; font-weight: 700; white-space: pre;" x="106.076" y="493.027" transform="matrix(0.828003, 0, 0, 1, 86.351021, -1.621579)">LABORATORIO DE GEOTECNIA Y CONCRETOS</text>
  <text style="fill: rgb(51, 51, 51); font-family: Montserrat; font-size: 57px; white-space: pre;" x="22.702" y="0"><tspan style="font-weight: 900; font-size: 57px; word-spacing: 0px;" x="218.703" y="455.485">INGEOCIMYC</tspan><tspan style="font-size: 57px; word-spacing: 0px;"> </tspan></text>
</svg>